
<svg id="Group_6" data-name="Group 6" xmlns="http://www.w3.org/2000/svg" width="261.996" height="50" viewBox="0 0 261.996 50">
  <g id="Group_5" data-name="Group 5" transform="translate(69.908 25.816)">
    <path id="Path_33" data-name="Path 33" d="M533.015,2792.55l-1.945,6.406h-4.26l7.245-22.607h5.266l7.346,22.607h-4.428l-2.046-6.406Zm6.474-3.12-1.778-5.568c-.436-1.375-.805-2.918-1.141-4.226H536.5c-.335,1.308-.671,2.885-1.073,4.226l-1.744,5.568Z" transform="translate(-526.81 -2775.142)" fill="#fff"/>
    <path id="Path_34" data-name="Path 34" d="M608.988,2803.472c0-2.214-.034-3.791-.134-5.266h3.589l.134,3.119h.134a4.871,4.871,0,0,1,4.461-3.489,4.333,4.333,0,0,1,.973.1v3.891a5.75,5.75,0,0,0-1.207-.134,3.637,3.637,0,0,0-3.69,3.119,7.062,7.062,0,0,0-.134,1.275v8.452h-4.126Z" transform="translate(-586.314 -2790.726)" fill="#fff"/>
    <path id="Path_35" data-name="Path 35" d="M660.97,2814.038a11.951,11.951,0,0,1-4.629.838c-5.1,0-8.419-3.254-8.419-8.318,0-4.9,3.354-8.721,9.09-8.721a10.3,10.3,0,0,1,3.992.772l-.738,3.086a7.271,7.271,0,0,0-3.12-.637c-3.153,0-5.031,2.314-5,5.3,0,3.354,2.18,5.266,5,5.266a8.074,8.074,0,0,0,3.254-.637Z" transform="translate(-614.649 -2790.726)" fill="#fff"/>
    <path id="Path_36" data-name="Path 36" d="M706.523,2771.954h4.159v9.727h.067a5.54,5.54,0,0,1,2.046-1.878,5.6,5.6,0,0,1,2.818-.738c2.784,0,5.7,1.845,5.7,7.077v9.626h-4.126v-9.157c0-2.382-.872-4.159-3.153-4.159a3.365,3.365,0,0,0-3.186,2.314,3.476,3.476,0,0,0-.168,1.241v9.761h-4.159Z" transform="translate(-657.15 -2771.954)" fill="#fff"/>
    <path id="Path_37" data-name="Path 37" d="M780.131,2776.643a2.315,2.315,0,1,1-2.314-2.247A2.186,2.186,0,0,1,780.131,2776.643Zm-4.394,20.9V2781.2H779.9v16.335Z" transform="translate(-707.179 -2773.725)" fill="#fff"/>
    <path id="Path_38" data-name="Path 38" d="M808.221,2776.208a34.493,34.493,0,0,1,6-.469c3.052,0,4.931.369,6.474,1.442a4.768,4.768,0,0,1,2.348,4.226,5.259,5.259,0,0,1-3.757,4.9v.067a5.7,5.7,0,0,1,4.562,5.6,5.867,5.867,0,0,1-2.18,4.663c-1.61,1.409-4.26,2.113-8.385,2.113a40.046,40.046,0,0,1-5.065-.3Zm4.092,8.922h2.113c2.851,0,4.461-1.341,4.461-3.253,0-2.113-1.61-3.086-4.226-3.086a11.264,11.264,0,0,0-2.348.167Zm0,10.4a18.276,18.276,0,0,0,2.18.1c2.65,0,5-1.006,5-3.79,0-2.616-2.281-3.69-5.132-3.69h-2.046Z" transform="translate(-730.909 -2774.699)" fill="#fff"/>
    <path id="Path_39" data-name="Path 39" d="M892.379,2810.618c0,1.946.067,3.556.134,4.9h-3.623l-.2-2.481h-.067a5.907,5.907,0,0,1-5.232,2.851c-2.985,0-5.7-1.778-5.7-7.111v-9.593h4.126v8.889c0,2.717.872,4.461,3.052,4.461a3.476,3.476,0,0,0,3.153-2.214,3.749,3.749,0,0,0,.235-1.275v-9.861h4.126Z" transform="translate(-781.291 -2791.7)" fill="#fff"/>
    <path id="Path_40" data-name="Path 40" d="M951.173,2776.643a2.315,2.315,0,1,1-2.314-2.247A2.186,2.186,0,0,1,951.173,2776.643Zm-4.394,20.9V2781.2h4.159v16.335Z" transform="translate(-831.231 -2773.725)" fill="#fff"/>
    <path id="Path_41" data-name="Path 41" d="M978.653,2771.954h4.159v23.815h-4.159Z" transform="translate(-854.518 -2771.954)" fill="#fff"/>
    <path id="Path_42" data-name="Path 42" d="M1022.343,2771.954v19.219c0,1.677.067,3.489.134,4.6h-3.69l-.168-2.583h-.067a5.88,5.88,0,0,1-5.333,2.952c-3.891,0-6.977-3.321-6.977-8.352-.034-5.468,3.388-8.721,7.312-8.721a5.2,5.2,0,0,1,4.6,2.146h.067v-9.257Zm-4.126,14.289a5.824,5.824,0,0,0-.1-1.074,3.614,3.614,0,0,0-3.555-2.918c-2.65,0-4.126,2.348-4.126,5.4,0,2.985,1.476,5.166,4.092,5.166a3.639,3.639,0,0,0,3.555-2.918,4.6,4.6,0,0,0,.134-1.207Z" transform="translate(-874.528 -2771.954)" fill="#fff"/>
    <path id="Path_43" data-name="Path 43" d="M1081.134,2807.531c.1,2.952,2.415,4.226,5.031,4.226a12.273,12.273,0,0,0,4.528-.738l.6,2.851a15.385,15.385,0,0,1-5.7,1.006c-5.3,0-8.419-3.254-8.419-8.251,0-4.528,2.751-8.788,7.983-8.788,5.3,0,7.044,4.361,7.044,7.949a10.14,10.14,0,0,1-.135,1.744Zm7.178-2.885c.033-1.51-.637-3.991-3.388-3.991-2.549,0-3.622,2.314-3.79,3.991Z" transform="translate(-925.974 -2790.726)" fill="#fff"/>
    <path id="Path_44" data-name="Path 44" d="M1143.6,2803.472c0-2.214-.033-3.791-.134-5.266h3.589l.134,3.119h.135a4.871,4.871,0,0,1,4.461-3.489,4.327,4.327,0,0,1,.972.1v3.891a5.747,5.747,0,0,0-1.207-.134,3.637,3.637,0,0,0-3.69,3.119,7.092,7.092,0,0,0-.134,1.275v8.452H1143.6Z" transform="translate(-974.054 -2790.726)" fill="#fff"/>
    <path id="Path_45" data-name="Path 45" d="M1184.562,2810.75a9.2,9.2,0,0,0,4.193,1.174c1.811,0,2.616-.738,2.616-1.811,0-1.107-.671-1.677-2.683-2.381-3.187-1.107-4.528-2.851-4.495-4.763,0-2.885,2.381-5.132,6.172-5.132a9.594,9.594,0,0,1,4.327.973l-.8,2.918a7.336,7.336,0,0,0-3.455-.939c-1.476,0-2.281.7-2.281,1.71,0,1.04.771,1.543,2.851,2.281,2.952,1.073,4.327,2.583,4.36,5,0,2.951-2.314,5.1-6.641,5.1a10.537,10.537,0,0,1-4.964-1.14Z" transform="translate(-1003.274 -2790.726)" fill="#fff"/>
  </g>
  <g id="Group_24" data-name="Group 24">
    <path id="Path_46" data-name="Path 46" d="M298.611,2729.485l3.884-11.634-12.16-36.753L274,2729.485Z" transform="translate(-274 -2680.252)" fill="#ffc01e"/>
    <path id="Path_47" data-name="Path 47" d="M349.947,2701.391l20.662.037,8.16-23.156-36.53-.253Z" transform="translate(-323.492 -2678.019)" fill="#ffc01e"/>
    <path id="Path_48" data-name="Path 48" d="M380.623,2795.326l20.662.037,8.16-23.156-36.53-.253Z" transform="translate(-345.74 -2746.138)" fill="#ffc01e"/>
  </g>
</svg>
